<?xml version="1.0" standalone="no"?>
<!DOCTYPE svg PUBLIC "-//W3C//DTD SVG 20010904//EN"
 "http://www.w3.org/TR/2001/REC-SVG-20010904/DTD/svg10.dtd">
<svg version="1.0" xmlns="http://www.w3.org/2000/svg"
 width="640.000000pt" height="640.000000pt" viewBox="0 0 640.000000 640.000000"
 preserveAspectRatio="xMidYMid meet">
<metadata>
Created by potrace 1.14, written by Peter Selinger 2001-2017
</metadata>
<g transform="translate(0.000000,640.000000) scale(0.100000,-0.100000)"
fill="#000000" stroke="none">
<path d="M2120 5745 c-25 -7 -56 -17 -70 -23 -14 -5 -29 -10 -34 -10 -5 0 -12
-4 -15 -9 -3 -4 -24 -20 -46 -35 -22 -15 -452 -440 -956 -945 -832 -833 -919
-924 -944 -978 -57 -125 -66 -202 -41 -325 30 -143 12 -122 1013 -1121 569
-569 935 -926 963 -943 84 -48 161 -66 263 -62 110 4 117 6 204 47 64 29 122
85 996 958 792 790 962 966 972 1001 2 5 10 28 28 75 15 37 14 227 0 278 -35
124 -14 100 -987 1075 -506 508 -939 936 -961 951 -98 68 -273 98 -385 66z
m202 -741 c45 -17 113 -82 130 -124 44 -108 -4 -240 -104 -291 -155 -79 -336
29 -335 200 0 69 23 122 75 170 64 60 151 76 234 45z m-1237 -1296 c40 -26
105 -88 92 -88 -4 0 -2 -10 5 -22 16 -29 19 -113 5 -153 -32 -93 -118 -158
-215 -161 -77 -2 -121 14 -173 66 -68 68 -87 168 -48 255 17 40 92 110 132
123 55 19 157 9 202 -20z m1280 0 c40 -26 105 -88 92 -88 -4 0 -2 -10 5 -22
16 -29 19 -113 5 -153 -32 -93 -118 -158 -215 -161 -77 -2 -121 14 -173 66
-68 68 -87 168 -48 255 17 40 92 110 132 123 55 19 157 9 202 -20z m1225 21
c22 -7 40 -16 40 -21 0 -5 4 -7 9 -4 11 7 79 -69 93 -104 44 -107 -4 -240
-103 -291 -156 -79 -337 28 -336 200 0 156 147 265 297 220z m-1223 -1311
c173 -123 111 -389 -96 -414 -135 -16 -252 80 -260 213 -2 49 15 123 29 123 6
0 10 6 10 13 0 8 15 27 32 43 83 74 199 84 285 22z"/>
<path d="M4762 3842 c-27 -3 -33 -7 -29 -20 44 -134 50 -171 50 -302 1 -180
-24 -271 -114 -427 -40 -70 -82 -114 -793 -825 l-687 -686 2 -257 c2 -268 10
-330 54 -416 20 -40 78 -114 115 -147 34 -32 129 -87 165 -97 17 -4 37 -11 45
-14 30 -11 2404 -11 2440 0 19 5 43 12 53 14 66 15 199 118 244 190 30 48 57
119 69 180 3 17 6 563 5 1215 0 1297 2 1244 -60 1354 -40 72 -91 123 -166 169
-85 51 -166 69 -305 67 -30 -1 -62 -1 -70 -1 -8 1 -31 1 -50 0 -19 -1 -42 -1
-50 0 -8 0 -40 0 -70 0 -30 -1 -62 -1 -70 0 -8 1 -31 1 -50 0 -19 -1 -42 -1
-50 0 -8 0 -40 0 -70 0 -30 -1 -62 -1 -70 0 -8 1 -31 1 -50 0 -19 -1 -42 -1
-50 0 -8 0 -40 0 -70 0 -30 -1 -62 -1 -70 0 -8 1 -31 1 -50 0 -19 -1 -42 -1
-50 0 -31 2 -105 0 -108 -4 -2 -2 -16 0 -30 4 -15 3 -42 5 -60 3z m109 -1396
c178 -74 200 -309 40 -414 -66 -44 -201 -35 -264 17 -76 64 -105 182 -66 270
22 49 70 99 121 124 41 20 124 22 169 3z"/>
</g>
</svg>
